<?xml version="1.0" encoding="UTF-8" standalone="no"?>
<svg
   width="210.058mm"
   height="31.831688mm"
   viewBox="0 0 9924 1503.8593"
   version="1.2"
   id="svg98"
   sodipodi:docname="tartini1779_ex4.svg"
   inkscape:version="1.4.4 (dcaf3e7d9e, 2026-05-05)"
   xmlns:inkscape="http://www.inkscape.org/namespaces/inkscape"
   xmlns:sodipodi="http://sodipodi.sourceforge.net/DTD/sodipodi-0.dtd"
   xmlns="http://www.w3.org/2000/svg"
   xmlns:svg="http://www.w3.org/2000/svg"
   xmlns:rdf="http://www.w3.org/1999/02/22-rdf-syntax-ns#"
   xmlns:cc="http://creativecommons.org/ns#"
   xmlns:dc="http://purl.org/dc/elements/1.1/">
  <defs
     id="defs98" />
  <sodipodi:namedview
     id="namedview98"
     pagecolor="#ffffff"
     bordercolor="#000000"
     borderopacity="0.25"
     inkscape:showpageshadow="2"
     inkscape:pageopacity="0.0"
     inkscape:pagecheckerboard="0"
     inkscape:deskcolor="#d1d1d1"
     inkscape:document-units="mm"
     inkscape:zoom="1.0389935"
     inkscape:cx="396.53763"
     inkscape:cy="441.77371"
     inkscape:window-width="2560"
     inkscape:window-height="1368"
     inkscape:window-x="0"
     inkscape:window-y="0"
     inkscape:window-maximized="1"
     inkscape:current-layer="svg98" />
  <title
     id="title1">Partition sans titre</title>
  <desc
     id="desc1">Generated by MuseScore Studio 4.7.5</desc>
  <path
     class=""
     fill="#ffffff"
     fill-rule="evenodd"
     d="M 0,0 H 9924 V 1503.8593 H 0 V 0"
     id="path1"
     style="stroke-width:0.32742" />
  <polyline
     class="StaffLines"
     fill="none"
     stroke="#000000"
     stroke-width="9.09"
     stroke-linejoin="bevel"
     points="1122.05,2114.17 9215.34,2114.17"
     id="polyline1"
     transform="translate(0,-1491.8285)" />
  <polyline
     class="StaffLines"
     fill="none"
     stroke="#000000"
     stroke-width="9.09"
     stroke-linejoin="bevel"
     points="1122.05,2196.85 9215.34,2196.85"
     id="polyline2"
     transform="translate(0,-1491.8285)" />
  <polyline
     class="StaffLines"
     fill="none"
     stroke="#000000"
     stroke-width="9.09"
     stroke-linejoin="bevel"
     points="1122.05,2279.53 9215.34,2279.53"
     id="polyline3"
     transform="translate(0,-1491.8285)" />
  <polyline
     class="StaffLines"
     fill="none"
     stroke="#000000"
     stroke-width="9.09"
     stroke-linejoin="bevel"
     points="1122.05,2362.2 9215.34,2362.2"
     id="polyline4"
     transform="translate(0,-1491.8285)" />
  <polyline
     class="StaffLines"
     fill="none"
     stroke="#000000"
     stroke-width="9.09"
     stroke-linejoin="bevel"
     points="1122.05,2444.88 9215.34,2444.88"
     id="polyline5"
     transform="translate(0,-1491.8285)" />
  <polyline
     class="Stem"
     fill="none"
     stroke="#000000"
     stroke-width="8.27"
     stroke-linejoin="bevel"
     points="8025.51,2266.3 8025.51,1845.47"
     id="polyline6"
     transform="translate(0,-1491.8285)" />
  <polyline
     class="Stem"
     fill="none"
     stroke="#000000"
     stroke-width="8.27"
     stroke-linejoin="bevel"
     points="6343.26,2266.3 6343.26,1969.49"
     id="polyline7"
     transform="translate(0,-1491.8285)" />
  <polyline
     class="Stem"
     fill="none"
     stroke="#000000"
     stroke-width="8.27"
     stroke-linejoin="bevel"
     points="3902.48,2307.64 3902.48,2031.5"
     id="polyline8"
     transform="translate(0,-1491.8285)" />
  <polyline
     class="Stem"
     fill="none"
     stroke="#000000"
     stroke-width="8.27"
     stroke-linejoin="bevel"
     points="8298.37,2266.3 8298.37,1845.47"
     id="polyline9"
     transform="translate(0,-1491.8285)" />
  <polyline
     class="Stem"
     fill="none"
     stroke="#000000"
     stroke-width="8.27"
     stroke-linejoin="bevel"
     points="2071.89,2266.3 2071.89,2031.5"
     id="polyline10"
     transform="translate(0,-1491.8285)" />
  <polyline
     class="Stem"
     fill="none"
     stroke="#000000"
     stroke-width="8.27"
     stroke-linejoin="bevel"
     points="6750.05,2266.3 6750.05,1907.48"
     id="polyline11"
     transform="translate(0,-1491.8285)" />
  <polyline
     class="Stem"
     fill="none"
     stroke="#000000"
     stroke-width="8.27"
     stroke-linejoin="bevel"
     points="8161.94,2307.64 8161.94,1845.47"
     id="polyline12"
     transform="translate(0,-1491.8285)" />
  <polyline
     class="Stem"
     fill="none"
     stroke="#000000"
     stroke-width="8.27"
     stroke-linejoin="bevel"
     points="3536.36,2266.3 3536.36,2031.5"
     id="polyline13"
     transform="translate(0,-1491.8285)" />
  <polyline
     class="Stem"
     fill="none"
     stroke="#000000"
     stroke-width="8.27"
     stroke-linejoin="bevel"
     points="6912.77,2307.64 6912.77,1907.48"
     id="polyline14"
     transform="translate(0,-1491.8285)" />
  <polyline
     class="Stem"
     fill="none"
     stroke="#000000"
     stroke-width="8.27"
     stroke-linejoin="bevel"
     points="7075.49,2266.3 7075.49,1907.48"
     id="polyline15"
     transform="translate(0,-1491.8285)" />
  <polyline
     class="Stem"
     fill="none"
     stroke="#000000"
     stroke-width="8.27"
     stroke-linejoin="bevel"
     points="6587.33,2307.64 6587.33,1907.48"
     id="polyline16"
     transform="translate(0,-1491.8285)" />
  <polyline
     class="Stem"
     fill="none"
     stroke="#000000"
     stroke-width="8.27"
     stroke-linejoin="bevel"
     points="2438.01,2307.64 2438.01,2031.5"
     id="polyline17"
     transform="translate(0,-1491.8285)" />
  <polyline
     class="Stem"
     fill="none"
     stroke="#000000"
     stroke-width="8.27"
     stroke-linejoin="bevel"
     points="7238.21,2307.64 7238.21,1907.48"
     id="polyline18"
     transform="translate(0,-1491.8285)" />
  <polyline
     class="Stem"
     fill="none"
     stroke="#000000"
     stroke-width="8.27"
     stroke-linejoin="bevel"
     points="7889.08,2307.64 7889.08,1845.47"
     id="polyline19"
     transform="translate(0,-1491.8285)" />
  <polyline
     class="Stem"
     fill="none"
     stroke="#000000"
     stroke-width="8.27"
     stroke-linejoin="bevel"
     points="3170.24,2307.64 3170.24,2031.5"
     id="polyline20"
     transform="translate(0,-1491.8285)" />
  <polyline
     class="Stem"
     fill="none"
     stroke="#000000"
     stroke-width="8.27"
     stroke-linejoin="bevel"
     points="7400.93,2266.3 7400.93,1907.48"
     id="polyline21"
     transform="translate(0,-1491.8285)" />
  <polyline
     class="Stem"
     fill="none"
     stroke="#000000"
     stroke-width="8.27"
     stroke-linejoin="bevel"
     points="7563.65,2307.64 7563.65,1907.48"
     id="polyline22"
     transform="translate(0,-1491.8285)" />
  <polyline
     class="Stem"
     fill="none"
     stroke="#000000"
     stroke-width="8.27"
     stroke-linejoin="bevel"
     points="7726.37,2266.3 7726.37,1907.48"
     id="polyline23"
     transform="translate(0,-1491.8285)" />
  <polyline
     class="Stem"
     fill="none"
     stroke="#000000"
     stroke-width="8.27"
     stroke-linejoin="bevel"
     points="2804.13,2266.3 2804.13,2031.5"
     id="polyline24"
     transform="translate(0,-1491.8285)" />
  <polyline
     class="Stem"
     fill="none"
     stroke="#000000"
     stroke-width="8.27"
     stroke-linejoin="bevel"
     points="1705.77,2307.64 1705.77,2031.5"
     id="polyline25"
     transform="translate(0,-1491.8285)" />
  <polyline
     class="Stem"
     fill="none"
     stroke="#000000"
     stroke-width="8.27"
     stroke-linejoin="bevel"
     points="4878.79,2266.3 4878.79,1969.49"
     id="polyline26"
     transform="translate(0,-1491.8285)" />
  <polyline
     class="Stem"
     fill="none"
     stroke="#000000"
     stroke-width="8.27"
     stroke-linejoin="bevel"
     points="5122.87,2307.64 5122.87,1969.49"
     id="polyline27"
     transform="translate(0,-1491.8285)" />
  <polyline
     class="Stem"
     fill="none"
     stroke="#000000"
     stroke-width="8.27"
     stroke-linejoin="bevel"
     points="8844.09,2266.3 8844.09,1845.47"
     id="polyline28"
     transform="translate(0,-1491.8285)" />
  <polyline
     class="Stem"
     fill="none"
     stroke="#000000"
     stroke-width="8.27"
     stroke-linejoin="bevel"
     points="5366.94,2266.3 5366.94,1969.49"
     id="polyline29"
     transform="translate(0,-1491.8285)" />
  <polyline
     class="Stem"
     fill="none"
     stroke="#000000"
     stroke-width="8.27"
     stroke-linejoin="bevel"
     points="8707.66,2307.64 8707.66,1845.47"
     id="polyline30"
     transform="translate(0,-1491.8285)" />
  <polyline
     class="Stem"
     fill="none"
     stroke="#000000"
     stroke-width="8.27"
     stroke-linejoin="bevel"
     points="4634.71,2307.64 4634.71,1969.49"
     id="polyline31"
     transform="translate(0,-1491.8285)" />
  <polyline
     class="Stem"
     fill="none"
     stroke="#000000"
     stroke-width="8.27"
     stroke-linejoin="bevel"
     points="5611.02,2307.64 5611.02,1969.49"
     id="polyline32"
     transform="translate(0,-1491.8285)" />
  <polyline
     class="Stem"
     fill="none"
     stroke="#000000"
     stroke-width="8.27"
     stroke-linejoin="bevel"
     points="8434.8,2307.64 8434.8,1845.47"
     id="polyline33"
     transform="translate(0,-1491.8285)" />
  <polyline
     class="Stem"
     fill="none"
     stroke="#000000"
     stroke-width="8.27"
     stroke-linejoin="bevel"
     points="5855.1,2266.3 5855.1,1969.49"
     id="polyline34"
     transform="translate(0,-1491.8285)" />
  <polyline
     class="Stem"
     fill="none"
     stroke="#000000"
     stroke-width="8.27"
     stroke-linejoin="bevel"
     points="4268.59,2266.3 4268.59,2031.5"
     id="polyline35"
     transform="translate(0,-1491.8285)" />
  <polyline
     class="Stem"
     fill="none"
     stroke="#000000"
     stroke-width="8.27"
     stroke-linejoin="bevel"
     points="8571.23,2266.3 8571.23,1845.47"
     id="polyline36"
     transform="translate(0,-1491.8285)" />
  <polyline
     class="Stem"
     fill="none"
     stroke="#000000"
     stroke-width="8.27"
     stroke-linejoin="bevel"
     points="6099.18,2307.64 6099.18,1969.49"
     id="polyline37"
     transform="translate(0,-1491.8285)" />
  <path
     class="Note"
     d="m 7785.74,842.9415 c 0,14.24 10.26,30.11 37.08,30.11 34.42,0 70.5,-28.12 70.5,-57.25 0,-19.53 -16.57,-30.45 -37.08,-30.45 -32.11,0 -70.5,27.14 -70.5,57.59"
     id="path37" />
  <path
     class="Note"
     d="m 8195.03,801.6015 c 0,14.24 10.26,30.11 37.07,30.11 34.43,0 70.5,-28.12 70.5,-57.25 0,-19.53 -16.56,-30.45 -37.07,-30.45 -32.11,0 -70.5,27.14 -70.5,57.59"
     id="path38" />
  <path
     class="Note"
     d="m 8740.74,801.6015 c 0,14.24 10.27,30.11 37.08,30.11 34.42,0 70.5,-28.12 70.5,-57.25 0,-19.53 -16.56,-30.45 -37.08,-30.45 -32.11,0 -70.5,27.14 -70.5,57.59"
     id="path39" />
  <path
     class="Note"
     d="m 8331.45,842.9415 c 0,14.24 10.27,30.11 37.08,30.11 34.42,0 70.5,-28.12 70.5,-57.25 0,-19.53 -16.56,-30.45 -37.08,-30.45 -32.1,0 -70.5,27.14 -70.5,57.59"
     id="path40" />
  <path
     class="Note"
     d="m 7623.02,801.6015 c 0,14.24 10.26,30.11 37.08,30.11 34.42,0 70.5,-28.12 70.5,-57.25 0,-19.53 -16.57,-30.45 -37.08,-30.45 -32.11,0 -70.5,27.14 -70.5,57.59"
     id="path41" />
  <path
     class="Note"
     d="m 2334.66,842.9415 c 0,14.24 10.27,30.11 37.08,30.11 34.42,0 70.5,-28.12 70.5,-57.25 0,-19.53 -16.56,-30.45 -37.08,-30.45 -32.11,0 -70.5,27.14 -70.5,57.59"
     id="path42" />
  <path
     class="Note"
     d="m 4775.44,801.6015 c 0,14.24 10.27,30.11 37.08,30.11 34.42,0 70.5,-28.12 70.5,-57.25 0,-19.53 -16.56,-30.45 -37.08,-30.45 -32.11,0 -70.5,27.14 -70.5,57.59"
     id="path43" />
  <path
     class="Note"
     d="m 8604.31,842.9415 c 0,14.24 10.27,30.11 37.08,30.11 34.42,0 70.5,-28.12 70.5,-57.25 0,-19.53 -16.56,-30.45 -37.08,-30.45 -32.11,0 -70.5,27.14 -70.5,57.59"
     id="path44" />
  <path
     class="Note"
     d="m 8058.6,842.9415 c 0,14.24 10.26,30.11 37.07,30.11 34.43,0 70.5,-28.12 70.5,-57.25 0,-19.53 -16.56,-30.45 -37.07,-30.45 -32.11,0 -70.5,27.14 -70.5,57.59"
     id="path45" />
  <path
     class="Note"
     d="m 1602.43,842.9415 c 0,14.24 10.26,30.11 37.08,30.11 34.42,0 70.5,-28.12 70.5,-57.25 0,-19.53 -16.57,-30.45 -37.08,-30.45 -32.11,0 -70.5,27.14 -70.5,57.59"
     id="path46" />
  <path
     class="Note"
     d="m 7922.17,801.6015 c 0,14.24 10.26,30.11 37.08,30.11 34.42,0 70.5,-28.12 70.5,-57.25 0,-19.53 -16.57,-30.45 -37.08,-30.45 -32.11,0 -70.5,27.14 -70.5,57.59"
     id="path47" />
  <path
     class="Note"
     d="m 1968.54,801.6015 c 0,14.24 10.27,30.11 37.08,30.11 34.42,0 70.5,-28.12 70.5,-57.25 0,-19.53 -16.56,-30.45 -37.08,-30.45 -32.1,0 -70.5,27.14 -70.5,57.59"
     id="path48" />
  <path
     class="Note"
     d="m 8467.88,801.6015 c 0,14.24 10.27,30.11 37.08,30.11 34.42,0 70.5,-28.12 70.5,-57.25 0,-19.53 -16.56,-30.45 -37.08,-30.45 -32.11,0 -70.5,27.14 -70.5,57.59"
     id="path49" />
  <path
     class="Note"
     d="m 3433.01,801.6015 c 0,14.24 10.27,30.11 37.08,30.11 34.42,0 70.5,-28.12 70.5,-57.25 0,-19.53 -16.56,-30.45 -37.08,-30.45 -32.11,0 -70.5,27.14 -70.5,57.59"
     id="path50" />
  <path
     class="Note"
     d="m 5507.68,842.9415 c 0,14.24 10.26,30.11 37.07,30.11 34.43,0 70.5,-28.12 70.5,-57.25 0,-19.53 -16.56,-30.45 -37.07,-30.45 -32.11,0 -70.5,27.14 -70.5,57.59"
     id="path51" />
  <path
     class="Note"
     d="m 5263.6,801.6015 c 0,14.24 10.26,30.11 37.08,30.11 34.42,0 70.5,-28.12 70.5,-57.25 0,-19.53 -16.57,-30.45 -37.08,-30.45 -32.11,0 -70.5,27.14 -70.5,57.59"
     id="path52" />
  <path
     class="Note"
     d="m 4165.25,801.6015 c 0,14.24 10.26,30.11 37.08,30.11 34.42,0 70.5,-28.12 70.5,-57.25 0,-19.53 -16.57,-30.45 -37.08,-30.45 -32.11,0 -70.5,27.14 -70.5,57.59"
     id="path53" />
  <path
     class="Note"
     d="m 5751.75,801.6015 c 0,14.24 10.27,30.11 37.08,30.11 34.42,0 70.5,-28.12 70.5,-57.25 0,-19.53 -16.56,-30.45 -37.08,-30.45 -32.11,0 -70.5,27.14 -70.5,57.59"
     id="path54" />
  <path
     class="Note"
     d="m 4531.36,842.9415 c 0,14.24 10.27,30.11 37.08,30.11 34.42,0 70.5,-28.12 70.5,-57.25 0,-19.53 -16.56,-30.45 -37.08,-30.45 -32.11,0 -70.5,27.14 -70.5,57.59"
     id="path55" />
  <path
     class="Note"
     d="m 5995.83,842.9415 c 0,14.24 10.27,30.11 37.08,30.11 34.42,0 70.5,-28.12 70.5,-57.25 0,-19.53 -16.56,-30.45 -37.08,-30.45 -32.11,0 -70.5,27.14 -70.5,57.59"
     id="path56" />
  <path
     class="Note"
     d="m 3799.13,842.9415 c 0,14.24 10.27,30.11 37.08,30.11 34.42,0 70.5,-28.12 70.5,-57.25 0,-19.53 -16.56,-30.45 -37.08,-30.45 -32.11,0 -70.5,27.14 -70.5,57.59"
     id="path57" />
  <path
     class="Note"
     d="m 7460.3,842.9415 c 0,14.24 10.27,30.11 37.08,30.11 34.42,0 70.5,-28.12 70.5,-57.25 0,-19.53 -16.56,-30.45 -37.08,-30.45 -32.11,0 -70.5,27.14 -70.5,57.59"
     id="path58" />
  <path
     class="Note"
     d="m 6239.91,801.6015 c 0,14.24 10.27,30.11 37.08,30.11 34.42,0 70.5,-28.12 70.5,-57.25 0,-19.53 -16.56,-30.45 -37.08,-30.45 -32.11,0 -70.5,27.14 -70.5,57.59"
     id="path59" />
  <path
     class="Note"
     d="m 6483.99,842.9415 c 0,14.24 10.26,30.11 37.08,30.11 34.42,0 70.5,-28.12 70.5,-57.25 0,-19.53 -16.57,-30.45 -37.08,-30.45 -32.11,0 -70.5,27.14 -70.5,57.59"
     id="path60" />
  <path
     class="Note"
     d="m 6646.71,801.6015 c 0,14.24 10.26,30.11 37.08,30.11 34.42,0 70.5,-28.12 70.5,-57.25 0,-19.53 -16.57,-30.45 -37.08,-30.45 -32.11,0 -70.5,27.14 -70.5,57.59"
     id="path61" />
  <path
     class="Note"
     d="m 6809.43,842.9415 c 0,14.24 10.26,30.11 37.07,30.11 34.43,0 70.5,-28.12 70.5,-57.25 0,-19.53 -16.56,-30.45 -37.07,-30.45 -32.11,0 -70.5,27.14 -70.5,57.59"
     id="path62" />
  <path
     class="Note"
     d="m 5019.52,842.9415 c 0,14.24 10.27,30.11 37.08,30.11 34.42,0 70.5,-28.12 70.5,-57.25 0,-19.53 -16.56,-30.45 -37.08,-30.45 -32.11,0 -70.5,27.14 -70.5,57.59"
     id="path63" />
  <path
     class="Note"
     d="m 6972.14,801.6015 c 0,14.24 10.27,30.11 37.08,30.11 34.42,0 70.5,-28.12 70.5,-57.25 0,-19.53 -16.56,-30.45 -37.08,-30.45 -32.1,0 -70.5,27.14 -70.5,57.59"
     id="path64" />
  <path
     class="Note"
     d="m 3066.9,842.9415 c 0,14.24 10.26,30.11 37.07,30.11 34.43,0 70.5,-28.12 70.5,-57.25 0,-19.53 -16.56,-30.45 -37.07,-30.45 -32.11,0 -70.5,27.14 -70.5,57.59"
     id="path65" />
  <path
     class="Note"
     d="m 7134.86,842.9415 c 0,14.24 10.27,30.11 37.08,30.11 34.42,0 70.5,-28.12 70.5,-57.25 0,-19.53 -16.56,-30.45 -37.08,-30.45 -32.11,0 -70.5,27.14 -70.5,57.59"
     id="path66" />
  <path
     class="Note"
     d="m 7297.58,801.6015 c 0,14.24 10.27,30.11 37.08,30.11 34.42,0 70.5,-28.12 70.5,-57.25 0,-19.53 -16.56,-30.45 -37.08,-30.45 -32.11,0 -70.5,27.14 -70.5,57.59"
     id="path67" />
  <path
     class="Note"
     d="m 2700.78,801.6015 c 0,14.24 10.26,30.11 37.08,30.11 34.42,0 70.5,-28.12 70.5,-57.25 0,-19.53 -16.57,-30.45 -37.08,-30.45 -32.11,0 -70.5,27.14 -70.5,57.59"
     id="path68" />
  <path
     class="Clef"
     d="m 1323.07,938.5615 c -6.62,1.33 -12.91,1.99 -19.2,1.99 -47.33,0 -87.71,-33.1 -87.71,-83.08 0,-40.39 28.47,-76.47 57.6,-101.63 5.62,-4.95 10.92,-9.59 15.89,-14.56 2.97,17.88 5.3,33.44 7.61,47 -30.13,8.94 -50.64,40.72 -50.64,71.83 0,23.17 18.2,54.95 44.67,54.95 2.66,0 5.64,-1.33 5.64,-4.31 0,-2.97 -3.31,-4.63 -7.28,-7.28 -12.92,-7.94 -20.2,-16.55 -20.2,-32.77 0,-20.18 14.9,-36.4 34.42,-41.04 l 19.2,108.9 m -29.12,-340.26 c 2.98,-13.24 18.2,-48 35.42,-48 4.95,0 12.9,16.22 12.9,39.06 0,34.42 -25.48,60.25 -48.32,82.75 -1.99,-13.24 -3.64,-26.14 -3.64,-40.05 0,-12.25 0.98,-23.5 3.64,-33.76 m 76.12,279.03 c 0,23.5 -9.59,47.65 -33.09,57.26 -6.96,-39.72 -15.89,-92.36 -18.21,-106.92 29.79,0 51.3,20.2 51.3,49.66 m -145.64,162.84 c 0,21.85 16.89,50.64 61.58,50.64 15.55,0 29.12,-3.97 41.03,-11.25 17.87,-12.58 22.52,-34.42 22.52,-55.28 0,-12.91 -1.99,-27.8 -5.3,-46.67 -1,-6.61 -2.99,-16.55 -4.97,-29.45 32.44,-10.6 56.61,-44.35 56.61,-78.44 0,-49.99 -35.42,-83.75 -83.75,-83.75 -3.31,-19.86 -6.63,-39.39 -9.59,-57.92 35.07,-36.74 59.25,-78.11 59.25,-130.74 0,-30.12 -9.29,-54.62 -14.57,-66.53 -7.95,-16.89 -17.54,-28.47 -23.51,-28.47 -2.32,0 -12.57,3.97 -23.5,16.88 -21.17,25.15 -27.14,67.53 -27.14,95.33 0,17.87 1.65,34.09 7.28,71.17 -0.33,0.33 -17.53,17.86 -24.49,23.5 -30.12,28.12 -71.82,68.17 -71.82,134.37 0,61.89 53.95,110.55 115.51,110.55 9.59,0 18.53,-0.99 26.16,-2.31 6.28,31.78 9.92,54.95 9.92,72.48 0,34.42 -17.55,52.64 -50.97,52.64 -7.95,0 -14.89,-1.65 -15.56,-1.65 -0.33,-0.35 -0.99,-0.68 -0.99,-1 0,-0.66 0.66,-0.99 1.66,-1.33 15.55,-2.32 31.11,-15.55 31.11,-36.74 0,-17.87 -13.58,-36.73 -38.39,-36.73 -23.17,0 -38.08,18.86 -38.08,40.7"
     id="path69" />
  <path
     class="Beam"
     fill-rule="evenodd"
     d="m 1701.64,519.0015 h 1106.62 v 41.34 H 1701.64 v -41.34"
     id="path70" />
  <path
     class="Beam"
     fill-rule="evenodd"
     d="m 1701.64,581.0015 h 1106.62 v 41.34 H 1701.64 v -41.34"
     id="path71" />
  <path
     class="Beam"
     fill-rule="evenodd"
     d="m 4630.58,456.9915 h 740.5 v 41.34 h -740.5 v -41.34"
     id="path72" />
  <path
     class="Beam"
     fill-rule="evenodd"
     d="m 4630.58,519.0015 h 740.5 v 41.34 h -740.5 v -41.34"
     id="path73" />
  <path
     class="Beam"
     fill-rule="evenodd"
     d="m 4630.58,581.0015 h 740.5 v 41.34 h -740.5 v -41.34"
     id="path74" />
  <path
     class="Beam"
     fill-rule="evenodd"
     d="m 5606.89,456.9915 h 740.5 v 41.34 h -740.5 v -41.34"
     id="path75" />
  <path
     class="Beam"
     fill-rule="evenodd"
     d="m 5606.89,519.0015 h 740.5 v 41.34 h -740.5 v -41.34"
     id="path76" />
  <path
     class="Beam"
     fill-rule="evenodd"
     d="m 5606.89,581.0015 h 740.5 v 41.34 h -740.5 v -41.34"
     id="path77" />
  <path
     class="Beam"
     fill-rule="evenodd"
     d="m 8430.67,332.9715 h 417.55 v 41.34 h -417.55 v -41.34"
     id="path78" />
  <path
     class="Beam"
     fill-rule="evenodd"
     d="m 8430.67,394.9815 h 417.55 v 41.34 h -417.55 v -41.34"
     id="path79" />
  <path
     class="Beam"
     fill-rule="evenodd"
     d="m 8430.67,456.9915 h 417.55 v 41.34 h -417.55 v -41.34"
     id="path80" />
  <path
     class="Beam"
     fill-rule="evenodd"
     d="m 8430.67,519.0015 h 417.55 v 41.34 h -417.55 v -41.34"
     id="path81" />
  <path
     class="Beam"
     fill-rule="evenodd"
     d="m 8430.67,581.0015 h 417.55 v 41.34 h -417.55 v -41.34"
     id="path82" />
  <path
     class="Beam"
     fill-rule="evenodd"
     d="m 6583.2,394.9815 h 496.42 v 41.34 H 6583.2 v -41.34"
     id="path83" />
  <path
     class="Beam"
     fill-rule="evenodd"
     d="m 6583.2,456.9915 h 496.42 v 41.34 H 6583.2 v -41.34"
     id="path84" />
  <path
     class="Beam"
     fill-rule="evenodd"
     d="m 6583.2,519.0015 h 496.42 v 41.34 H 6583.2 v -41.34"
     id="path85" />
  <path
     class="Beam"
     fill-rule="evenodd"
     d="m 6583.2,581.0015 h 496.42 v 41.34 H 6583.2 v -41.34"
     id="path86" />
  <path
     class="Beam"
     fill-rule="evenodd"
     d="m 3166.11,519.0015 h 1106.62 v 41.34 H 3166.11 v -41.34"
     id="path87" />
  <path
     class="Beam"
     fill-rule="evenodd"
     d="m 3166.11,581.0015 h 1106.62 v 41.34 H 3166.11 v -41.34"
     id="path88" />
  <path
     class="Beam"
     fill-rule="evenodd"
     d="m 7884.95,332.9715 h 417.56 v 41.34 h -417.56 v -41.34"
     id="path89" />
  <path
     class="Beam"
     fill-rule="evenodd"
     d="m 7884.95,394.9815 h 417.56 v 41.34 h -417.56 v -41.34"
     id="path90" />
  <path
     class="Beam"
     fill-rule="evenodd"
     d="m 7884.95,456.9915 h 417.56 v 41.34 h -417.56 v -41.34"
     id="path91" />
  <path
     class="Beam"
     fill-rule="evenodd"
     d="m 7884.95,519.0015 h 417.56 v 41.34 h -417.56 v -41.34"
     id="path92" />
  <path
     class="Beam"
     fill-rule="evenodd"
     d="m 7884.95,581.0015 h 417.56 v 41.34 h -417.56 v -41.34"
     id="path93" />
  <path
     class="Beam"
     fill-rule="evenodd"
     d="m 7234.08,394.9815 h 496.42 v 41.34 h -496.42 v -41.34"
     id="path94" />
  <path
     class="Beam"
     fill-rule="evenodd"
     d="m 7234.08,456.9915 h 496.42 v 41.34 h -496.42 v -41.34"
     id="path95" />
  <path
     class="Beam"
     fill-rule="evenodd"
     d="m 7234.08,519.0015 h 496.42 v 41.34 h -496.42 v -41.34"
     id="path96" />
  <path
     class="Beam"
     fill-rule="evenodd"
     d="m 7234.08,581.0015 h 496.42 v 41.34 h -496.42 v -41.34"
     id="path97" />
  <path
     class="StaffText"
     d="m 9018.32,835.0515 c -2.61,13.67 -9.76,21.92 -19.31,21.92 -8.25,0 -15.41,-3.9 -23.87,-13.25 8.68,-10.62 9.76,-12.14 14.32,-20.82 13.24,-25.82 15.85,-28.43 31.25,-29.5 h 2.38 v -9.35 h -61.19 v 9.35 h 2.17 c 12.8,0 19.53,3.46 19.53,10.18 0,9.33 -5.86,22.14 -15.18,32.77 -10.43,-12.36 -22.78,-31.03 -34.94,-53.81 11.72,-5.21 15.41,-7.16 21.05,-11.07 9.98,-6.95 16.48,-18.87 16.48,-30.37 0,-17.58 -13.67,-29.3 -33.84,-29.3 -22.78,0 -37.97,15.41 -37.97,38.41 0,9.54 2.37,18.01 9.11,32.33 -24.32,11.5 -37.55,28.64 -37.55,48.17 0,10.86 4.78,22.78 12.38,31.03 8.03,8.69 19.53,13.23 34.28,13.23 15.62,0 27.56,-4.32 41.67,-15.4 10.4,10.64 18.87,14.54 30.81,14.54 23,0 35.36,-16.71 37.97,-37.76 l -9.55,-1.3 m -89.4,-61.62 c -6.3,-13.02 -9.33,-22.78 -9.33,-30.82 0,-12.59 6.94,-21.48 16.92,-21.48 9.98,0 17.14,8.47 17.14,20.39 0,8.25 -3.69,16.94 -9.33,22.36 -3.47,3.25 -6.72,5.2 -15.4,9.55 m -16.49,18.01 c 14.1,27.99 21.49,39.27 39.92,60.75 -9.54,6.08 -14.53,8.03 -21.92,8.03 -19.31,0 -36.45,-19.53 -36.45,-41.23 0,-11.94 5.42,-19.95 18.45,-27.55 m 208.1,48.39 c -6.96,15.61 -14.33,21.91 -25.61,21.91 -17.36,0 -28.22,-15.84 -28.22,-41.22 0,-26.48 10.64,-43.84 26.7,-43.84 6.5,0 12.14,3.04 12.14,6.51 0,0.64 -0.22,1.3 -1.3,2.6 -3.46,4.12 -4.34,6.29 -4.34,9.98 0,7.17 5.42,12.16 13.02,12.16 7.81,0 13.25,-6.08 13.25,-14.75 0,-14.77 -14.55,-25.83 -33.86,-25.83 -28.21,0 -48.39,23 -48.39,55.55 0,30.81 18.45,52.07 45.36,52.07 19.31,0 30.37,-8.89 39.7,-31.89 l -8.45,-3.25 m 42.31,7.8 c -7.6,0 -13.67,6.08 -13.67,13.47 0,7.59 6.07,13.65 13.45,13.65 7.59,0 13.67,-6.06 13.67,-13.65 0,-7.39 -6.08,-13.47 -13.45,-13.47"
     id="path98" />
  <metadata
     id="metadata98">
    <rdf:RDF>
      <cc:Work
         rdf:about="">
        <dc:title>Partition sans titre</dc:title>
      </cc:Work>
    </rdf:RDF>
  </metadata>
</svg>
